<svg width="26" height="27" viewBox="0 0 26 27" fill="none" xmlns="http://www.w3.org/2000/svg">
<path fill-rule="evenodd" clip-rule="evenodd" d="M13.0544 25.9006H13.0491C10.8825 25.8998 8.75353 25.3562 6.86268 24.3248L0 26.1251L1.83657 19.4168C0.703683 17.4535 0.107565 15.2264 0.108537 12.9448C0.111377 5.8071 5.91879 0 13.0543 0C16.5174 0.00149465 19.7678 1.34967 22.2119 3.79667C24.6561 6.24354 26.0014 9.49603 26 12.955C25.9971 20.0911 20.192 25.8976 13.0544 25.9006ZM7.18105 21.9814L7.57396 22.2146C9.22599 23.195 11.1197 23.7137 13.0505 23.7145H13.0548C18.9854 23.7145 23.8122 18.8875 23.8146 12.9545C23.8157 10.0794 22.6976 7.37608 20.6661 5.34223C18.6346 3.30838 15.933 2.18776 13.0591 2.18677C7.12395 2.18677 2.29703 7.01325 2.29468 12.9458C2.29384 14.9789 2.86271 16.9589 3.93979 18.672L4.19563 19.0791L3.10864 23.0497L7.18105 21.9814ZM19.5762 16.0336C19.4953 15.8986 19.2797 15.8177 18.9562 15.6557C18.6328 15.4938 17.0425 14.7114 16.7459 14.6033C16.4495 14.4954 16.2337 14.4415 16.0181 14.7652C15.8025 15.089 15.1826 15.8177 14.9939 16.0336C14.8052 16.2494 14.6165 16.2765 14.2932 16.1145C13.9697 15.9526 12.9274 15.6111 11.6919 14.509C10.7303 13.6513 10.0811 12.5921 9.89241 12.2682C9.70373 11.9444 9.8723 11.7694 10.0342 11.6081C10.1798 11.4631 10.3577 11.2302 10.5194 11.0414C10.6812 10.8525 10.7351 10.7175 10.8429 10.5018C10.9507 10.2858 10.8968 10.097 10.8159 9.93506C10.7351 9.77314 10.0882 8.18096 9.81863 7.53328C9.55604 6.90253 9.28938 6.98798 9.09084 6.97801C8.90238 6.96855 8.6865 6.96655 8.47089 6.96655C8.25526 6.96655 7.9048 7.04751 7.60831 7.37135C7.31182 7.6952 6.4762 8.47777 6.4762 10.0698C6.4762 11.662 7.63525 13.2001 7.797 13.416C7.95872 13.632 10.0779 16.8991 13.3228 18.3002C14.0945 18.6335 14.697 18.8325 15.1668 18.9816C15.9417 19.2279 16.6469 19.1931 17.2041 19.1098C17.8257 19.0169 19.1179 18.3273 19.3876 17.5718C19.657 16.8161 19.657 16.1684 19.5762 16.0336Z" fill="#25D366"/>
</svg>
